<svg width="55" height="55" viewBox="0 0 55 55" fill="none" xmlns="http://www.w3.org/2000/svg">
<path d="M7.00965 27.6901H27.2824V31.0689H7.00965V27.6901ZM3.63086 19.2432H20.5248V22.622H3.63086V19.2432Z" fill="black"/>
<path d="M50.7977 28.7139L45.7295 16.8881C45.5995 16.5841 45.383 16.3251 45.107 16.1431C44.831 15.9611 44.5076 15.8642 44.177 15.8643H39.1088V12.4855C39.1088 12.0375 38.9308 11.6078 38.614 11.291C38.2971 10.9741 37.8674 10.7961 37.4194 10.7961H10.389V14.1749H35.73V35.387C34.9602 35.834 34.2865 36.429 33.7477 37.1376C33.209 37.8463 32.8159 38.6546 32.5911 39.5159H21.9749C21.5637 37.9234 20.5858 36.5355 19.2246 35.6124C17.8633 34.6893 16.2121 34.2943 14.5804 34.5016C12.9488 34.7088 11.4487 35.504 10.3615 36.7381C9.27417 37.9722 8.67432 39.5605 8.67432 41.2053C8.67432 42.85 9.27417 44.4383 10.3615 45.6724C11.4487 46.9066 12.9488 47.7018 14.5804 47.909C16.2121 48.1163 17.8633 47.7213 19.2246 46.7982C20.5858 45.8751 21.5637 44.4872 21.9749 42.8947H32.5911C32.9586 44.3446 33.799 45.6306 34.9795 46.5491C36.16 47.4677 37.613 47.9665 39.1088 47.9665C40.6045 47.9665 42.0576 47.4677 43.238 46.5491C44.4185 45.6306 45.259 44.3446 45.6265 42.8947H49.2452C49.6932 42.8947 50.1229 42.7167 50.4397 42.3999C50.7566 42.083 50.9346 41.6533 50.9346 41.2053V29.3795C50.9346 29.1506 50.8881 28.9242 50.7977 28.7139ZM15.4572 44.5841C14.789 44.5841 14.1357 44.3859 13.5801 44.0146C13.0244 43.6434 12.5914 43.1157 12.3356 42.4983C12.0799 41.8809 12.013 41.2015 12.1433 40.5461C12.2737 39.8907 12.5955 39.2886 13.068 38.8161C13.5406 38.3436 14.1426 38.0218 14.798 37.8914C15.4535 37.761 16.1328 37.828 16.7502 38.0837C17.3676 38.3394 17.8953 38.7725 18.2666 39.3281C18.6378 39.8838 18.836 40.537 18.836 41.2053C18.8351 42.1011 18.4788 42.96 17.8454 43.5935C17.2119 44.2269 16.3531 44.5832 15.4572 44.5841ZM39.1088 19.2431H43.062L46.684 27.6901H39.1088V19.2431ZM39.1088 44.5841C38.4405 44.5841 37.7873 44.3859 37.2316 44.0146C36.676 43.6434 36.2429 43.1157 35.9872 42.4983C35.7314 41.8809 35.6645 41.2015 35.7949 40.5461C35.9253 39.8907 36.2471 39.2886 36.7196 38.8161C37.1921 38.3436 37.7942 38.0218 38.4496 37.8914C39.105 37.761 39.7844 37.828 40.4018 38.0837C41.0192 38.3394 41.5469 38.7725 41.9181 39.3281C42.2894 39.8838 42.4876 40.537 42.4876 41.2053C42.4867 42.1011 42.1304 42.96 41.497 43.5935C40.8635 44.2269 40.0046 44.5832 39.1088 44.5841ZM47.5558 39.5159H45.6265C45.2543 38.0688 44.4125 36.7861 43.233 35.8689C42.0535 34.9517 40.6029 34.4519 39.1088 34.4477V31.0689H47.5558V39.5159Z" fill="black"/>
</svg>
