<svg width="35" height="34" viewBox="0 0 35 34" fill="none" xmlns="http://www.w3.org/2000/svg">
<path fill-rule="evenodd" clip-rule="evenodd" d="M10.8172 0.404297H23.4966C29.3313 0.404297 34.0629 5.01342 34.0629 10.6971V23.0485C34.0629 28.7322 29.3313 33.3413 23.4966 33.3413H10.8172C4.98253 33.3413 0.250977 28.7322 0.250977 23.0485V10.6971C0.250977 5.01342 4.98253 0.404297 10.8172 0.404297ZM23.4966 30.2535C27.5752 30.2535 30.893 27.0215 30.893 23.0485V10.6971C30.893 6.72409 27.5752 3.49214 23.4966 3.49214H10.8172C6.73864 3.49214 3.42085 6.72409 3.42085 10.6971V23.0485C3.42085 27.0215 6.73864 30.2535 10.8172 30.2535H23.4966Z" fill="white"/>
<path fill-rule="evenodd" clip-rule="evenodd" d="M8.7041 16.8729C8.7041 12.3256 12.4889 8.63867 17.1571 8.63867C21.8252 8.63867 25.61 12.3256 25.61 16.8729C25.61 21.4203 21.8252 25.1072 17.1571 25.1072C12.4889 25.1072 8.7041 21.4203 8.7041 16.8729ZM11.874 16.8729C11.874 19.7096 14.245 22.0193 17.1571 22.0193C20.0691 22.0193 22.4402 19.7096 22.4402 16.8729C22.4402 14.0342 20.0691 11.7265 17.1571 11.7265C14.245 11.7265 11.874 14.0342 11.874 16.8729Z" fill="white"/>
<ellipse cx="26.2436" cy="8.02104" rx="1.12637" ry="1.09721" fill="white"/>
</svg>
