<svg width="50" height="50" viewBox="0 0 50 50" fill="none" xmlns="http://www.w3.org/2000/svg">
<path d="M23.5352 7.42188H26.4648C26.7253 7.42188 26.8555 7.55208 26.8555 7.8125V42.1875C26.8555 42.4479 26.7253 42.5781 26.4648 42.5781H23.5352C23.2747 42.5781 23.1445 42.4479 23.1445 42.1875V7.8125C23.1445 7.55208 23.2747 7.42188 23.5352 7.42188Z" fill="#888887"/>
<path d="M8.59375 23.1445H41.4062C41.6667 23.1445 41.7969 23.2747 41.7969 23.5352V26.4648C41.7969 26.7253 41.6667 26.8555 41.4062 26.8555H8.59375C8.33333 26.8555 8.20312 26.7253 8.20312 26.4648V23.5352C8.20312 23.2747 8.33333 23.1445 8.59375 23.1445Z" fill="#888887"/>
</svg>
