<svg width="31" height="31" viewBox="0 0 31 31" fill="none" xmlns="http://www.w3.org/2000/svg">
<path d="M26.9492 10.5673L19.4382 9.47432L16.0806 2.65906C15.9889 2.47246 15.8381 2.32141 15.6517 2.22959C15.1843 1.99856 14.6163 2.19108 14.3826 2.65906L11.025 9.47432L3.51402 10.5673C3.30694 10.5969 3.11762 10.6946 2.97266 10.8427C2.79742 11.023 2.70086 11.2657 2.70418 11.5172C2.70751 11.7688 2.81046 12.0088 2.99041 12.1844L8.4247 17.4891L7.14082 24.9797C7.11072 25.154 7.12997 25.3332 7.19642 25.497C7.26286 25.6609 7.37382 25.8028 7.51672 25.9067C7.65963 26.0106 7.82875 26.0724 8.00492 26.0849C8.1811 26.0975 8.35726 26.0604 8.51345 25.9779L15.2316 22.4414L21.9498 25.9779C22.1332 26.0756 22.3462 26.1082 22.5503 26.0726C23.065 25.9838 23.4111 25.4951 23.3224 24.9797L22.0385 17.4891L27.4728 12.1844C27.6207 12.0393 27.7183 11.8497 27.7479 11.6424C27.8278 11.1241 27.4669 10.6443 26.9492 10.5673V10.5673Z" fill="#DFC226"/>
</svg>
